# xmcd CD database file
#
# Track frame offsets:
#	150
#	26564
#	48612
#	67561
#	95912
#	112786
#	129420
#	149515
#	174836
#	197708
#	217251
#
# Disc length: 3119 seconds
#
# Revision: 0
# Processed by: cddbd v1.5.1PL2 Copyright (c) Steve Scherf et al.
# Submitted via: CDex 1.51
#
DISCID=9c0c2d0b
DTITLE=Count Basic - Moving in the right direction
DYEAR=1996
DGENRE=Jazz
TTITLE0=Moving in the right direction
TTITLE1=Got to do
TTITLE2=So far away
TTITLE3=Joy and pain
TTITLE4=This is your love
TTITLE5=Mole moves house
TTITLE6=Where did our love go
TTITLE7=Love your life
TTITLE8=Sweet Luis
TTITLE9=Speechless
TTITLE10=What's up?
EXTD=YEAR: 1996
EXTT0=
EXTT1=
EXTT2=
EXTT3=
EXTT4=
EXTT5=
EXTT6=
EXTT7=
EXTT8=
EXTT9=
EXTT10=
PLAYORDER=
